<svg width="51" height="50" viewBox="0 0 51 50" fill="white" xmlns="http://www.w3.org/2000/svg">
<path d="M25.3272 31.25C21.4591 31.25 21.1227 29.4583 21.1227 29.1667H16.9182C16.9182 31.0833 18.3057 34.4792 23.225 35.25V37.5H27.4295V35.25C31.6341 34.5417 33.7363 31.8542 33.7363 29.1667C33.7363 26.8333 32.6432 22.9167 25.3272 22.9167C21.1227 22.9167 21.1227 21.6042 21.1227 20.8333C21.1227 20.0625 22.5943 18.75 25.3272 18.75C28.0602 18.75 28.2494 20.0833 28.2704 20.8333H32.475C32.4466 19.4141 31.9315 18.0467 31.0144 16.9562C30.0974 15.8656 28.8331 15.117 27.4295 14.8333V12.5H23.225V14.7708C19.0204 15.4583 16.9182 18.1458 16.9182 20.8333C16.9182 23.1667 18.0113 27.0833 25.3272 27.0833C29.5318 27.0833 29.5318 28.5 29.5318 29.1667C29.5318 29.8333 28.2284 31.25 25.3272 31.25Z" fill="white"/>
<path d="M10.6113 4.16666H4.3045V8.33332H8.50905V43.75C8.50905 44.3025 8.73054 44.8324 9.12479 45.2231C9.51904 45.6138 10.0538 45.8333 10.6113 45.8333H40.0431C40.6007 45.8333 41.1354 45.6138 41.5297 45.2231C41.9239 44.8324 42.1454 44.3025 42.1454 43.75V8.33332H46.35V4.16666H10.6113ZM37.9409 41.6667H12.7136V8.33332H37.9409V41.6667Z" fill="white"/>
</svg>
