<svg width="30" height="30" viewBox="0 0 30 30" fill="none" xmlns="http://www.w3.org/2000/svg">
<g id="bxs-coin 1">
<path id="Vector" d="M15 6.25C8.78875 6.25 2.5 8.1825 2.5 11.875C2.5 15.5675 8.78875 17.5 15 17.5C21.2125 17.5 27.5 15.5675 27.5 11.875C27.5 8.1825 21.2125 6.25 15 6.25ZM8.75 18.6725V22.4225C10.2962 22.7963 12.0063 23.025 13.75 23.0988V19.3488C12.0656 19.2831 10.3913 19.0567 8.75 18.6725ZM16.25 19.3475V23.0975C17.9345 23.0332 19.6089 22.8067 21.25 22.4213V18.6713C19.6089 19.0567 17.9345 19.2832 16.25 19.3475ZM23.75 17.8713V21.6213C26.0012 20.6775 27.5 19.3 27.5 17.5V13.75C27.5 15.55 26.0012 16.9275 23.75 17.8713ZM6.25 21.6213V17.8713C4 16.9275 2.5 15.5488 2.5 13.75V17.5C2.5 19.2988 4 20.6775 6.25 21.6213Z" fill="#21BF73"/>
</g>
</svg>
