<svg width="49" height="50" viewBox="0 0 49 50" fill="none" xmlns="http://www.w3.org/2000/svg">
<path d="M8.14344 27.0833H20.2087C20.742 27.0833 21.2534 26.8638 21.6306 26.4731C22.0077 26.0824 22.2195 25.5525 22.2195 25V8.33333C22.2195 7.7808 22.0077 7.25089 21.6306 6.86019C21.2534 6.46949 20.742 6.25 20.2087 6.25H8.14344C7.61012 6.25 7.09865 6.46949 6.72154 6.86019C6.34443 7.25089 6.13257 7.7808 6.13257 8.33333V25C6.13257 25.5525 6.34443 26.0824 6.72154 26.4731C7.09865 26.8638 7.61012 27.0833 8.14344 27.0833ZM6.13257 41.6667C6.13257 42.2192 6.34443 42.7491 6.72154 43.1398C7.09865 43.5305 7.61012 43.75 8.14344 43.75H20.2087C20.742 43.75 21.2534 43.5305 21.6306 43.1398C22.0077 42.7491 22.2195 42.2192 22.2195 41.6667V33.3333C22.2195 32.7808 22.0077 32.2509 21.6306 31.8602C21.2534 31.4695 20.742 31.25 20.2087 31.25H8.14344C7.61012 31.25 7.09865 31.4695 6.72154 31.8602C6.34443 32.2509 6.13257 32.7808 6.13257 33.3333V41.6667ZM26.2413 41.6667C26.2413 42.2192 26.4531 42.7491 26.8302 43.1398C27.2073 43.5305 27.7188 43.75 28.2521 43.75H40.3174C40.8507 43.75 41.3621 43.5305 41.7393 43.1398C42.1164 42.7491 42.3282 42.2192 42.3282 41.6667V27.0833C42.3282 26.5308 42.1164 26.0009 41.7393 25.6102C41.3621 25.2195 40.8507 25 40.3174 25H28.2521C27.7188 25 27.2073 25.2195 26.8302 25.6102C26.4531 26.0009 26.2413 26.5308 26.2413 27.0833V41.6667ZM28.2521 20.8333H40.3174C40.8507 20.8333 41.3621 20.6138 41.7393 20.2231C42.1164 19.8324 42.3282 19.3025 42.3282 18.75V8.33333C42.3282 7.7808 42.1164 7.25089 41.7393 6.86019C41.3621 6.46949 40.8507 6.25 40.3174 6.25H28.2521C27.7188 6.25 27.2073 6.46949 26.8302 6.86019C26.4531 7.25089 26.2413 7.7808 26.2413 8.33333V18.75C26.2413 19.3025 26.4531 19.8324 26.8302 20.2231C27.2073 20.6138 27.7188 20.8333 28.2521 20.8333Z" fill="white"/>
</svg>
