<svg width="40" height="40" viewBox="0 0 40 40" fill="none" xmlns="http://www.w3.org/2000/svg">
<g id="bxs-pin 1">
<path id="Vector" opacity="0.3" d="M25 19.31V9.99999H28.3333V6.66666C28.3333 5.78261 27.9821 4.93476 27.357 4.30964C26.7319 3.68452 25.8841 3.33333 25 3.33333H15C14.1159 3.33333 13.2681 3.68452 12.643 4.30964C12.0179 4.93476 11.6667 5.78261 11.6667 6.66666V9.99999H15V19.31L10.4883 22.155C10.3333 22.3095 10.2103 22.4932 10.1265 22.6954C10.0427 22.8976 9.99968 23.1144 10 23.3333V26.6667C10 27.1087 10.1756 27.5326 10.4882 27.8452C10.8007 28.1577 11.2246 28.3333 11.6667 28.3333H18.3333V33.3333L20 36.6667L21.6667 33.3333V28.3333H28.3333C28.7754 28.3333 29.1993 28.1577 29.5118 27.8452C29.8244 27.5326 30 27.1087 30 26.6667V23.3333C30.0003 23.1144 29.9573 22.8976 29.8735 22.6954C29.7897 22.4932 29.6667 22.3095 29.5117 22.155L25 19.31Z" fill="#6B6E72"/>
</g>
</svg>
