<svg width="50" height="50" viewBox="0 0 50 50" fill="none" xmlns="http://www.w3.org/2000/svg">
<path d="M39.7313 10.2688C37.7988 8.33142 35.5026 6.79502 32.9745 5.74783C30.4464 4.70064 27.7364 4.16329 25 4.16667C22.2631 4.1594 19.5519 4.69497 17.0233 5.74238C14.4947 6.78979 12.1989 8.32826 10.2688 10.2688C6.33335 14.2042 4.16669 19.4375 4.16669 25C4.16669 30.5625 6.33335 35.7958 10.2688 39.7312C14.2042 43.6667 19.4375 45.8333 25 45.8333C30.5625 45.8333 35.7959 43.6667 39.7313 39.7312C41.6718 37.8011 43.2102 35.5053 44.2576 32.9767C45.3051 30.4481 45.8406 27.7369 45.8334 25C45.8367 22.2636 45.2994 19.5536 44.2522 17.0255C43.205 14.4975 41.6686 12.2012 39.7313 10.2688ZM36.7854 36.7854C33.6375 39.9333 29.4521 41.6667 25 41.6667C20.5479 41.6667 16.3625 39.9333 13.2146 36.7854C10.0667 33.6375 8.33335 29.4521 8.33335 25C8.33335 20.5479 10.0667 16.3625 13.2146 13.2146C14.7587 11.6621 16.5954 10.4314 18.6184 9.5935C20.6414 8.75564 22.8104 8.32732 25 8.33333V25H41.6667C41.6727 27.1896 41.2444 29.3587 40.4065 31.3816C39.5686 33.4046 38.3379 35.2413 36.7854 36.7854Z" fill="white"/>
</svg>
