<svg width="51" height="50" viewBox="0 0 51 50" fill="none" xmlns="http://www.w3.org/2000/svg">
<path d="M42.1454 14.5833H33.7363V8.33334C33.7363 6.03542 31.8506 4.16667 29.5318 4.16667H21.1227C18.8039 4.16667 16.9181 6.03542 16.9181 8.33334V18.75H8.50905C6.19024 18.75 4.3045 20.6188 4.3045 22.9167V41.6667C4.3045 42.2192 4.52599 42.7491 4.92025 43.1398C5.3145 43.5305 5.84922 43.75 6.40678 43.75H44.2477C44.8052 43.75 45.34 43.5305 45.7342 43.1398C46.1285 42.7491 46.35 42.2192 46.35 41.6667V18.75C46.35 16.4521 44.4642 14.5833 42.1454 14.5833ZM8.50905 22.9167H16.9181V39.5833H8.50905V22.9167ZM21.1227 20.8333V8.33334H29.5318V39.5833H21.1227V20.8333ZM42.1454 39.5833H33.7363V18.75H42.1454V39.5833Z" fill="white"/>
</svg>
