<svg width="24" height="24" viewBox="0 0 24 24" fill="none" xmlns="http://www.w3.org/2000/svg">
<g id="bx-wifi 1">
<path id="Vector" d="M18 12C18 15.537 16.647 18.837 14.191 21.293L15.605 22.707C18.439 19.874 20 16.071 20 12C19.999 7.929 18.439 4.126 15.605 1.293L14.191 2.707C16.647 5.163 18 8.463 18 12ZM9.693 17.671C12.767 14.597 12.767 9.403 9.693 6.329L8.279 7.743C10.586 10.05 10.586 13.95 8.279 16.257L9.693 17.671Z" fill="white"/>
<path id="Vector_2" d="M6.00001 15.5C8.71977 13.8742 8.71976 10.1258 6 8.5L4.50001 10C6.7637 11.3538 6.42041 13 4.50001 14L6.00001 15.5Z" fill="white"/>
<path id="Vector_3" d="M12.707 20.437C17.281 15.865 17.281 8.136 12.707 3.564L11.293 4.978C15.1 8.785 15.1 15.216 11.293 19.023L12.707 20.437Z" fill="white"/>
</g>
</svg>
