<svg width="50" height="50" viewBox="0 0 50 50" fill="none" xmlns="http://www.w3.org/2000/svg">
<path d="M43.75 10.4167C43.75 8.11875 41.8812 6.25 39.5833 6.25H10.4167C8.11875 6.25 6.25 8.11875 6.25 10.4167V39.5833C6.25 41.8812 8.11875 43.75 10.4167 43.75H39.5833C41.8812 43.75 43.75 41.8812 43.75 39.5833V10.4167ZM10.4167 39.5833V10.4167H39.5833L39.5875 39.5833H10.4167Z" fill="white"/>
<path d="M14.5833 14.5833H18.7458V18.75H14.5833V14.5833ZM22.9166 14.5833H35.4166V18.75H22.9166V14.5833ZM14.5833 22.9167H18.7458V27.0833H14.5833V22.9167ZM22.9166 22.9167H35.4166V27.0833H22.9166V22.9167ZM14.5833 31.25H18.7458V35.4167H14.5833V31.25ZM22.9166 31.25H35.4166V35.4167H22.9166V31.25Z" fill="white"/>
</svg>
