<svg width="55" height="55" viewBox="0 0 55 55" fill="none" xmlns="http://www.w3.org/2000/svg">
<g id="bxl-visa 1">
<path id="Vector" d="M37.9019 21.0512C36.8366 20.6631 35.7105 20.4683 34.5767 20.476C30.91 20.476 28.3204 22.3231 28.3021 24.9746C28.2792 26.9225 30.1423 28.0202 31.5517 28.671C32.9977 29.3402 33.4813 29.7619 33.4767 30.36C33.4675 31.2698 32.3217 31.6823 31.256 31.6823C29.7917 31.6823 28.9919 31.4783 27.7613 30.9673L27.3052 30.7542L26.785 33.8067C27.6765 34.1779 29.2829 34.4965 30.9421 34.524C34.8402 34.524 37.3885 32.6883 37.4183 29.8673C37.4504 28.3113 36.4421 27.1356 34.32 26.164C33.0298 25.5337 32.23 25.1121 32.23 24.4727C32.23 23.9067 32.9152 23.3017 34.3475 23.3017C35.3007 23.2786 36.2481 23.4574 37.1273 23.8265L37.471 23.98L37.9912 21.0306L37.9019 21.0512ZM47.4169 20.7235H44.5523C43.6608 20.7235 42.9894 20.9688 42.5998 21.8533L37.0906 34.3338H40.9888L41.7679 32.2873L46.5254 32.2919C46.6377 32.7708 46.9815 34.3338 46.9815 34.3338H50.419L47.4169 20.7235ZM23.029 20.609H26.7438L24.42 34.226H20.7098L23.029 20.6044V20.609ZM13.5988 28.1142L13.9838 30.0048L17.6138 20.7235H21.5485L15.7025 34.3154H11.7769L8.56854 22.8067C8.51658 22.6169 8.39455 22.4539 8.22708 22.3506C7.07071 21.7533 5.84546 21.3 4.57875 21.0008L4.62917 20.7144H10.6081C11.4194 20.7465 12.0725 21.0008 12.2902 21.8671L13.5965 28.121L13.5988 28.1142ZM42.8335 29.5029L44.314 25.6942C44.2956 25.7354 44.6188 24.9081 44.8067 24.3971L45.061 25.5727L45.9204 29.5006H42.8313L42.8335 29.5029Z" fill="white"/>
</g>
</svg>
