<svg width="30" height="30" viewBox="0 0 30 30" fill="none" xmlns="http://www.w3.org/2000/svg">
<g id="bxs-wallet 1">
<path id="Vector" d="M25 8.75V6.25C25 4.87125 23.8787 3.75 22.5 3.75H6.25C4.1825 3.75 2.5 5.4325 2.5 7.5V22.5C2.5 25.2512 4.7425 26.25 6.25 26.25H25C26.3787 26.25 27.5 25.1287 27.5 23.75V11.25C27.5 9.87125 26.3787 8.75 25 8.75ZM22.5 20H20V15H22.5V20ZM6.25 8.75C5.92815 8.7356 5.62426 8.59762 5.4016 8.36477C5.17893 8.13193 5.05467 7.82217 5.05467 7.5C5.05467 7.17783 5.17893 6.86807 5.4016 6.63523C5.62426 6.40238 5.92815 6.2644 6.25 6.25H22.5V8.75H6.25Z" fill="#21BF73"/>
</g>
</svg>
